<mxfile host="app.diagrams.net" modified="2023-10-03T21:17:00.228Z" agent="Mozilla/5.0 (Windows NT 10.0; Win64; x64) AppleWebKit/537.36 (KHTML, like Gecko) Chrome/117.0.0.0 Safari/537.36 Edg/117.0.2045.47" etag="j0QSeuFVVohQ-I5ZEfgs" version="22.0.1" type="google">
  <diagram name="Página-1" id="AAt8d4hOkpQHDssPSgDr">
    <mxGraphModel grid="1" page="1" gridSize="10" guides="1" tooltips="1" connect="1" arrows="1" fold="1" pageScale="1" pageWidth="827" pageHeight="1169" math="0" shadow="0">
      <root>
        <mxCell id="0" />
        <mxCell id="1" parent="0" />
        <mxCell id="QDMqAGP_Ud28XwZEDZxs-1" value="" style="rounded=0;whiteSpace=wrap;html=1;fillColor=#fff2cc;strokeColor=#d6b656;" vertex="1" parent="1">
          <mxGeometry x="19" y="115" width="560" height="470" as="geometry" />
        </mxCell>
        <mxCell id="QDMqAGP_Ud28XwZEDZxs-10" value="" style="rounded=0;whiteSpace=wrap;html=1;fillColor=#ffe6cc;strokeColor=#d79b00;" vertex="1" parent="1">
          <mxGeometry x="19" y="475" width="560" height="110" as="geometry" />
        </mxCell>
        <mxCell id="QDMqAGP_Ud28XwZEDZxs-2" value="" style="rounded=0;whiteSpace=wrap;html=1;fillColor=#fff2cc;strokeColor=#d6b656;" vertex="1" parent="1">
          <mxGeometry x="619" y="115" width="190" height="645" as="geometry" />
        </mxCell>
        <mxCell id="QDMqAGP_Ud28XwZEDZxs-4" value="" style="rounded=0;whiteSpace=wrap;html=1;" vertex="1" parent="1">
          <mxGeometry x="120" y="220" width="120" height="200" as="geometry" />
        </mxCell>
        <mxCell id="QDMqAGP_Ud28XwZEDZxs-5" value="&lt;b&gt;Quem sou eu?&lt;/b&gt;" style="text;html=1;strokeColor=none;fillColor=none;align=center;verticalAlign=middle;whiteSpace=wrap;rounded=0;" vertex="1" parent="1">
          <mxGeometry x="254" y="162.5" width="90" height="30" as="geometry" />
        </mxCell>
        <mxCell id="QDMqAGP_Ud28XwZEDZxs-7" value="&lt;h1 style=&quot;line-height: 60%;&quot;&gt;&lt;span style=&quot;background-color: initial; font-size: 12px; font-weight: normal;&quot;&gt;Olá, como vai? Meu nome é Luciano da Silva Paiva. Atualmente eu possuo 20 anos sou formado em Informática e manutenção na microlins, sou formado em inglês na Minds e estou formando em Tecnologia em Análise e Desenvolvimento de Sistemas.&lt;/span&gt;&lt;br&gt;&lt;/h1&gt;" style="text;html=1;strokeColor=none;fillColor=none;spacing=5;spacingTop=-20;whiteSpace=wrap;overflow=hidden;rounded=0;" vertex="1" parent="1">
          <mxGeometry x="325" y="220" width="221" height="140" as="geometry" />
        </mxCell>
        <mxCell id="QDMqAGP_Ud28XwZEDZxs-8" value="Contato:" style="text;html=1;strokeColor=none;fillColor=none;align=center;verticalAlign=middle;whiteSpace=wrap;rounded=0;" vertex="1" parent="1">
          <mxGeometry x="269" y="475" width="60" height="30" as="geometry" />
        </mxCell>
        <mxCell id="QDMqAGP_Ud28XwZEDZxs-9" value="Foto" style="text;html=1;strokeColor=none;fillColor=none;align=center;verticalAlign=middle;whiteSpace=wrap;rounded=0;" vertex="1" parent="1">
          <mxGeometry x="150" y="305" width="60" height="30" as="geometry" />
        </mxCell>
        <mxCell id="r9XD55p5Pgs4kU4IZGFu-2" style="edgeStyle=orthogonalEdgeStyle;rounded=0;orthogonalLoop=1;jettySize=auto;html=1;entryX=1;entryY=0.5;entryDx=0;entryDy=0;exitX=0.5;exitY=0;exitDx=0;exitDy=0;" edge="1" parent="1" source="QDMqAGP_Ud28XwZEDZxs-11" target="r9XD55p5Pgs4kU4IZGFu-1">
          <mxGeometry relative="1" as="geometry" />
        </mxCell>
        <mxCell id="QDMqAGP_Ud28XwZEDZxs-11" value="Mudar idioma para:&lt;br&gt;english ou español" style="text;html=1;strokeColor=none;fillColor=none;align=center;verticalAlign=middle;whiteSpace=wrap;rounded=0;" vertex="1" parent="1">
          <mxGeometry x="656.5" y="115" width="115" height="30" as="geometry" />
        </mxCell>
        <mxCell id="QDMqAGP_Ud28XwZEDZxs-13" value="&lt;b&gt;Quem sou eu?&lt;/b&gt;" style="text;html=1;strokeColor=none;fillColor=none;align=center;verticalAlign=middle;whiteSpace=wrap;rounded=0;" vertex="1" parent="1">
          <mxGeometry x="669" y="155" width="90" height="30" as="geometry" />
        </mxCell>
        <mxCell id="QDMqAGP_Ud28XwZEDZxs-14" value="" style="rounded=0;whiteSpace=wrap;html=1;" vertex="1" parent="1">
          <mxGeometry x="654" y="192.5" width="120" height="200" as="geometry" />
        </mxCell>
        <mxCell id="QDMqAGP_Ud28XwZEDZxs-16" value="" style="rounded=0;whiteSpace=wrap;html=1;fillColor=#ffe6cc;strokeColor=#d79b00;" vertex="1" parent="1">
          <mxGeometry x="619" y="650" width="190" height="110" as="geometry" />
        </mxCell>
        <mxCell id="QDMqAGP_Ud28XwZEDZxs-17" value="Contato:" style="text;html=1;strokeColor=none;fillColor=none;align=center;verticalAlign=middle;whiteSpace=wrap;rounded=0;" vertex="1" parent="1">
          <mxGeometry x="684" y="650" width="60" height="30" as="geometry" />
        </mxCell>
        <mxCell id="QDMqAGP_Ud28XwZEDZxs-23" value="Foto" style="text;html=1;strokeColor=none;fillColor=none;align=center;verticalAlign=middle;whiteSpace=wrap;rounded=0;" vertex="1" parent="1">
          <mxGeometry x="684" y="277.5" width="60" height="30" as="geometry" />
        </mxCell>
        <mxCell id="QDMqAGP_Ud28XwZEDZxs-24" value="WIREFRAMES" style="text;html=1;align=center;verticalAlign=middle;resizable=0;points=[];autosize=1;strokeColor=none;fillColor=none;fontSize=16;fontStyle=1" vertex="1" parent="1">
          <mxGeometry x="325" y="8" width="130" height="30" as="geometry" />
        </mxCell>
        <mxCell id="QDMqAGP_Ud28XwZEDZxs-25" value="&lt;h1 style=&quot;line-height: 60%;&quot;&gt;&lt;span style=&quot;background-color: initial; font-size: 12px; font-weight: normal;&quot;&gt;Olá, como vai? Meu nome é Luciano da Silva Paiva. Atualmente eu possuo 20 anos sou formado em Informática e manutenção na microlins, sou formado em inglês na Minds e estou formando em Tecnologia em Análise e Desenvolvimento de Sistemas.&lt;/span&gt;&lt;br&gt;&lt;/h1&gt;" style="text;html=1;strokeColor=none;fillColor=none;spacing=5;spacingTop=-20;whiteSpace=wrap;overflow=hidden;rounded=0;" vertex="1" parent="1">
          <mxGeometry x="644" y="405" width="140" height="250" as="geometry" />
        </mxCell>
        <mxCell id="r9XD55p5Pgs4kU4IZGFu-3" style="edgeStyle=orthogonalEdgeStyle;rounded=0;orthogonalLoop=1;jettySize=auto;html=1;exitX=0.5;exitY=0;exitDx=0;exitDy=0;entryX=0;entryY=0.5;entryDx=0;entryDy=0;" edge="1" parent="1" source="QDMqAGP_Ud28XwZEDZxs-26" target="r9XD55p5Pgs4kU4IZGFu-1">
          <mxGeometry relative="1" as="geometry" />
        </mxCell>
        <mxCell id="QDMqAGP_Ud28XwZEDZxs-26" value="Mudar idioma para: english ou español" style="text;html=1;strokeColor=none;fillColor=none;align=center;verticalAlign=middle;whiteSpace=wrap;rounded=0;" vertex="1" parent="1">
          <mxGeometry x="362.5" y="115" width="216.5" height="30" as="geometry" />
        </mxCell>
        <mxCell id="QDMqAGP_Ud28XwZEDZxs-29" value="" style="shape=image;verticalLabelPosition=bottom;labelBackgroundColor=default;verticalAlign=top;aspect=fixed;imageAspect=0;image=https://upload.wikimedia.org/wikipedia/commons/thumb/5/5e/WhatsApp_icon.png/479px-WhatsApp_icon.png;" vertex="1" parent="1">
          <mxGeometry x="634" y="680" width="50" height="50.1" as="geometry" />
        </mxCell>
        <mxCell id="QDMqAGP_Ud28XwZEDZxs-30" value="" style="shape=image;verticalLabelPosition=bottom;labelBackgroundColor=default;verticalAlign=top;aspect=fixed;imageAspect=0;image=https://upload.wikimedia.org/wikipedia/commons/thumb/5/5e/WhatsApp_icon.png/479px-WhatsApp_icon.png;" vertex="1" parent="1">
          <mxGeometry x="219" y="512.51" width="50" height="50.1" as="geometry" />
        </mxCell>
        <mxCell id="r9XD55p5Pgs4kU4IZGFu-1" value="Os idiomas mudam de acordo com o idioma escolhido. As opções mudam dependendo de qual idioma estiver, mas os idiomas de escolha se mantem o mesmo independente de qual escolher." style="text;html=1;strokeColor=none;fillColor=none;align=center;verticalAlign=middle;whiteSpace=wrap;rounded=0;" vertex="1" parent="1">
          <mxGeometry x="480" y="8" width="230" height="82" as="geometry" />
        </mxCell>
        <mxCell id="jNw6yd0TFnMZiaIHxZhw-1" value="" style="shape=image;verticalLabelPosition=bottom;labelBackgroundColor=default;verticalAlign=top;aspect=fixed;imageAspect=0;image=data:image/jpeg,/9j/4AAQSkZJRgABAQAAAQABAAD/2wCEAAYEBQYFBAYGBQYHBwYIChAKCgkJChQODwwQFxQYGBcUFhYaHSUfGhsjHBYWICwgIyYnKSopGR8tMC0oMCUoKSgBBwcHCggKEwoKEygaFhooKCgoKCgoKCgoKCgoKCgoKCgoKCgoKCgoKCgoKCgoKCgoKCgoKCgoKCgoKCgoKCgoKP/CABEIAZABkAMBIgACEQEDEQH/xAA1AAEAAAcBAAAAAAAAAAAAAAAAAQIDBQYHCAQBAQACAwEBAAAAAAAAAAAAAAAEBgIDBQEH/9oADAMBAAIQAxAAAADqkAAAAAAAAAAAAAAAAAAAAAAAAAAAAAABDyevYxS0yMNgtZ+XbjtZqOnl5uBp2X33cjTR7uVpl57uZpoy3K01F7uRp2p57t5qX04+7Ra4uWtmq0XaPjEeAAAAAAAAADy6WlYbb1np2nYouT45Th1dNRTZJ1OLKZKxzmjIx3TpYebZ0rHbMlg2zJXm2KWDbMlg2TQhD3bG6WqHme0Nm8wufr7Rcw764PPyQQowAAAAACyVOW+l57sdpxt+idI9ynSXnD20th32HlqBvD06M9DR3/Vw2c9uh44587uiXmzneHRMfM+dXRLzPnaHRUrZzu6Gp+58+N++b3ZoqG6rNs26vZVjEqTJGLPOFei986I2Nxn0PXuLsUcjmgAAAJJ9Q7/daYjTXjdUU45ZVM/zjb9f1Yhl0XB1hgAAAAAAAAAAWm7PfdJak7IxfqdTlmNztvd70K9COTqjJOZOm6vWAhwwAAKfH3Q3MNikiPclQ3hrPrbiaJxXIYAAAAAAAAAACXGueJXQ6f8AbxpeZU/rRiGX83iYvzF2LpTo9TT5HuWKHTPM+zYXN36K7VwAANA6izLELf05Yxb9++9u2O+VDkBowAAAAAIUyqtcnud3eb0eYxDwBCNI5dxuaFj+gwRZ53frHjXr3mVz32q6w5tf44lynF7PfIXS2QzdkTWi71WiB5iAhGice2+aW5dyPs8eTas+sIwjUuAAAAAefTGyTtjWWnac2xZTjVNI60sYxy3L1ZWPm0NlczNHN7Ic2b0hVu/wi1c/l/Feq+futccVTZHK6nn6sxrJuRTEIo3N0HrLc2me9dkYJc7pXNNc7GrlFDTFAeH3Wj33j2aE9tsUMxxDOovvTMYRrdbAAAWepzFu6fqxtHo3GERuRhc8VtZlVw0YRG/2HKRAj7senzPfOiM/476Fg1DP4RR+BSqRAAGqNHb50N2boRhM6m99o6m2zwqMEeAAsN+x7PPkqZGy2iOfYDsKL50ghHg1UABLNqzKRrfEIR6N/BvZrmu341cw/L5kasQiea4Wi8PctI6r7CxLfYeZoXDwSrfD0+d66ov3NvSUD5+GvmgAa20B0Hz51brETOvunb2ntw8aiBH5wDHMjxvPZyhE79vjsTXmxY2HRY41PAAk5P35zZItSEW+ztv686p0V+qI9OAAAAxLmrsLSO6y6nEi5Q6Z5n2dhxd8CJQgANec9dDc9dO7QiTOzuPcmm9ycihhH5gDG8kxrPbymjN2btDYuvtixdXQw5tJAA0rqTP8H9+hUFeHnT3NtnHci9+bh5CAAAAWi7wZcdwv9gl/VV5s0fXYkfN6YfykHgGveeuhueejeAl9rcW5dNbl5VCDRygGN5Jjnu3liarNLvkmw8C2DG0b9GFFAA5wxbMcVg/SqEK8MJnVPq8Xt6HywPcAAAABA5wwnMcO3/UUIwzmdY3a2XON8mDzWBr7nroXnubeZUUzt7g3Npnc3NoAaOUAx7IcfbuYp559P0CTPsHzzTG3qJlCAA0bg23tTcb6DRVmjqb7yvT+4Oz87DfzgAAAEs2HtvPdthHZ9ZVKeU5aumKsI6fkwAGvue+hOe5d6QildvcG5dNblgfPw08oBYb9Y/N3NU80/K+hS5zhebYxt4DsUAACyc9dQaL5VnxJWhxrbHofnbI53H30oV7BRAeAAAQ5xzjTWm6+aFannbZdyag6r21q7DGhAAa+576C59lXsJHc3FuPTu4oXz0NXKAWa82rHbzdNNUrv0WTM8Ry5G3bEsnz4ABjmRsNnNMuytdVD6JRVYaJl+3Jz5V6XG6RanzHuVXJ3jnkwfSsWI6pextTYXZYVp89P0SarP5pK9+mY5fuvz+ib8xBBAA1zoDfehJN9Df29zbf1JtuH87DXywHg9/mxy5qqRqVL6RJlGOZA0bzQjb/AJ4AABLqTbssWbzlDY2vafeqMKsNMyjLWlzyoSV5dvtCSvLty88nopyM/PJXyWVrsvQ1W5dugBu44AAGrtF7s0nI+ghu7G8Nq6z2ZE+cBhzQEk8pzguPipH0eW7W6tqdBxknvnzgAAABYL+17NMY50VaOFYdFSbQsfL7WES5TRwl4zJmV2k6tae/ceUdTk6+2FM69ZDZGAAAA0tqLYWvpH0mEYR29HoTYOKZXE+YhjDAA03jmxtf0u8STzz82dt++a82HeKME6EAAAAAAAAAAAAAAlmxNt58tMs0r6rCMMky19LeyEYfyoHgAFo03vvU1esFhqT1avYJtvakvnV5GylOpc6sHoAAAAAAAAAAAABzlm2j87lGMG61tx6g6q8rl4EeigAALJe2vPTFXLcaodup1KlSPncc41zW63L2SxW9WTj3BLGdHiQIoRAAAAAABAigIrRhOuZsrUeCY9havPJVpSbQMg36c13j5fVo+aBjCAAAAlwnOIQ5GsamRWSnd+nPUm0e041Zvcafppx2YV5/K3a/Y8cuXnuh4ZPfffL4JGdwlttPzZcqdsotl1o2qh7uu3ntPnz33TxW/wAucr02Wv5N03w0vTQlzKFGvRnZUKVbJehrtXSs93zoAY8YAAAAABb7g15Yj5M58vFnYlNfPLzJNuj6ZI2yiqw89pQrQ8UIV5fMvPJ6JGfmp+qn5n5KXrpebvHQ9tBv8Pn9/mzkeDy3DybJNv8AJcpZW+yeXMbz0sNXe/eGYdLkax2dOk1gPYoAAAAAAAAAEERLLUY+0YV2Pvnh6XjzQ9Q8svsPfHD2jww9574I+568dT0Pcac0zLEPQAAAAAAAAAAAAAAAAAAAAAAAAAAAAAAH/8QAJxAAAQIFBAIDAQEBAAAAAAAAAQIGAwQFBxEAEBIgCDAVF0AUcFD/2gAIAQEAAQIA/wAiJnanN3CjXaiXjXedV6lXqN6jer7q+6vur7q+6/uv7rF6xewXrReqHeeHeGUuhT3MFfmr7jr15qw+Yi+Wc8uWc5znOc51nOiSc5OqW4aFeRtXH/FUp953bmZjOSrlnOc51nOemc5znOds6IZ9xGc8fe7HI8ndyznOc5znIO2c5znOc51ncbAY1Izds7jA+x1OB1uTOs5KqO2KfZ+UshDshDsomzAs4LO/T/0/9P8A1B9QfT/0/wDT5s8bOKsyuysSyMxY+bszVLfrR0hRLUvz1x4ty3hnOSWTbBs27CcfkxiuN122dnJTG0hNsNzeq/zqznKdWstfj9WHuzHFRMbWscvpmIzvres6saxf0qWayiJs/wBpzsrvamu+i9tZ2xb9uQIX6H27XK7ODectvXro6vw297C1b0eRlRAxjx6og/Qo3Dru7RrUJWnVSloxpr1BB7E3cncaJY9N9pMWPFcCHLAnges0InReqANK1c6n7ENGc7K04I+1ElUD119xV+89WuBMTATxQaW6qJeFt3B3IuW392TQYadK1fyW2GrPTPabUtW1tYKfVPzj1u5NzPUaxs0LitR1bPFsOZhmG22Sx2hv5DwN7DxO1cXD0NAWihp9LpcL0d+MbY3HSnT1uLgg6IMuB08hEHewC+zuiIGALKoT6HLW3a4+tMoMvbRdrZ9mqG2NQYtrnz6L/p38fFdn2U6A1Y5I7xV3Md3RmW6bdu0oxjjW207LQzEDR2ps6ynF3v0nfx6Pa4RG9iwnvfFzjcC2lswnth8squUje1Ll733G/j0e1xjvYkdo0V3VnYasuyvVcNpTEDe19d7X16ePPe5GjoAasRodrwVXGsMqgy0D1HV9G5vYaq9r6dPHrvcnR0NYsQB28gZ3jx42Fo49jtpKk7MyfB6306ePPe5WuISE2KSO15o3HiU29kfYrT+k9gumxut8+nj13uRriEpTY4DtdDXHitFKR7Dq8qNlBpK63y0Rg68ee9xtcQkIskO10YXHitNDi+xWrux9lFsQ+t8tjt49d7hjiEhNlgO15JXjx42wnh7IinLP7SsGWR1vludePXe4GgkJCbNAdr1SHHjxs1VR7Lp10Da2FOA63y0N/Hru/QEhITZ4Ds8qYUlPGSmG7WPUo3UcpG1gqP2vn08ex2fICQkJtEB2xcOjceJSyHJJzPpuw9ilSVCUlmtSO19DobePY7PMBISE2oCe74oK4fHjxaLqodaz0zMR31cdQKVBSbItbvfYgnbx7HZ1JSAALXaHci5bY44KSJSZo1yqc+INUXPzztrN0nC4VJUFBSWS15GU736Vv4+DtXkwwABbcj0REvlo8SkgpKSCgoKSCFBQUltN5tUH0X/XobeP6O1QShISAwyn0qQ7mKpBSU4IIIIKSFBSWgyqDRvT5Br0NrCQ+0VMaGEhLWWkekhwteuM8oKSkpKSCFCj0FsW2Qj0nXkFMb2OhdlacEuEhMBUuv1nVUb0/bmat9FZYZkFgSdsKWxIUP1nV8ZzR0NWslu9xpVKQniy53/gRC76lshFHle91ZJKUpCbaz4/edXOrgG1uqYB3dNPSlKUokYtLnf3HV23PoaGrBUf0u+lpQlCUNqrQYv7btvvYaloDTo/pdlJShKEoSihVeSnM/ozFiv+5sQ7DVkWv6jp30VKUoCAmXiSTilqumJnJPLOc5znOds5znOSqpuSuXVcrpUFA7Mls0yR9a016iJSlASEhIQjSJwVNNW+a+bNc+eNfLhLjU5VOdTpU7Vu+I8lvOK84zwmHROzykrCwsKCtNdvNNu+1SatQQkJCQkJ48ePEpKSkpKSlSVJWlaVpiIiIiJiJiJipiJiBQVpQXpmMhs0Ae/E/SpulhISE8ePHiUlJSUqSUqSpKkqStK0xExExERUxExUxUrC9UZvtS1MGF+I6mJGLRV0tcqUYxjBSUlJSpKkqSpK0rTETETFETS4YpkBkyNqaPbqBC/RjiYZgfymU/i/h/h/g+P+NNM+L+J+I+IFJTTEySYIA/yT/8QAVhAAAQIDAgcJCAwNAwQDAAAAAQIDBAURACEGEiAxQVGREBMiMGFxgaGxFDJCUmKSwdEVIyZAQ3J0g5SiwuEHJDNTVFVjZIKEstLiRGWkNFBwkyVFc//aAAgBAQADPwD/AMRwMCkqjYyGhwNLrqU9ptgtC1C5zDrUNDIU5/SDbBpsnFVGu8qIf1kWkSfycHMV86Ej7VpaO8lccrnUgWhfBksSed9I9FmvBkbvTEj+2w0SNX0kf221SM/SR/bZX6j/AOT/AI2V+o/+V/jZf6iH0r/Gy/1GPpX+Nl/qIfSf8bK/UX/K/wAbH9RH6T/jYaZEr6SP7bN6ZE50RI/ttDeFJHxzRCT6LQB7+URo5nEG0lP5SAmKeZKD6bYNqpjtzBHOwD2KtgnEUCpnvBOh5laeulLSSYUEFNoF8nMEPJrsrYEVBBGv3vKZAzjzWOaYJFUoJqtXMkXm1FKbkMvqMweizTpCB6TbCKbVEVNX0tn4Nj2pP1b9psXF4zhK1HwlHGO0259we8btw2BN4BOsi04lKwqXTOLh6aEuEp2GotOoQpRNoaHj29K0+1OdXBOwWwenxQ03F9yRSvgIqiCTyHMeg+84SWwbsXHvtw8O2KqccNALRMUpcLg0lUMxeDFOD2xXxU+Dzm/ms9FPrfiXXHnlmqnHFFSieUn37rtO8G1Ia30x0AnPDRCiaDyFZ09Y5LSrCqGK5e9iRCRV2Gcucb6NI5Rd7wl+DErVGzJyleC20nv3VeKkenMLTLCqP36OcxIdB9phkHgNj0q5T1ZHLxh4o5cRARbUVBPuMRLRqhxs0KbM4RJTL5riMTcDg0uREU0p1K1p2WqLuNgsGpM9MJgujaLkoHfOKOZKeU/faOwnm7kfMF3ngttJ71pGhKfSdJyQBU0Fp5OQFSyVRb7Z+EDeKjzjQWwliQDEqgYQalulR+qDaIUPxueNoOpqGKusqFoEflJ3GK+Kygeu0mHfzOZK5t7H2bYPjPFzM/OpH2bYNjO9Mz/MD1WwZGdcxP8AM/dbBj/cPpJ9VsF/9w+kn1WwX1TD6SbYL6ph9JNsF9Uf9JNsF9Uw+km2C+qYfSTbBf8A3D6SfVbBjXMfpJ9VsGjmcmQ/mPutg6RdEzMfPJ/ttIz3kwmaedaD9m0sP5OcRyfjNtn0WTikw0+VXQHIUdoVadtpJhY6Af5FFaCdoIthRLQpT0oedQm8rhyHR1X9VlNuFDiVIcTnSoEEc4OStpxDjS1IcQQpKkmhSRmIOg2GEUKJdM1pE3YTXGzd0JHhDlGkdPGIYZW68tKG0JKlKUaBIF5Js5hbPlOtqUmWQ5KIVs6RpWeVXUKDIpnNpxhEhuKi/wD42XKvDjqfbHB5KNXKeu2DsgCFswKYmKSP+oifbFV1gG5PQLACgFBq97i0onjWJNYBiJGhSk8IcyheNtltpciMGokuAX9yRCr+ZK/XttEQMU5DRjLjEQ2aLbcTiqTzjIiJfGsRcG6pmJZWFtrTnSRZnCmQNRrYCH0+1xDQ+DcGfoOcch4vuKWMyGDco/GDHiCDeloG5P8AEeoHXkFSglIJUTQACpJ0Clm4FtmbYSshyNNFMwixVLOoqGlXJmHP78FpdhXBYkSkMxiB7TFIHCRyHWnk7LRuD80dgJk3iPIvSod64nQpJ0g5Bwcwna31eLARhDMQCbhU8FfQTsJ4puHYceeWENNpK1qOYACpNnMIsJZhNHSqj7h3sHwWxcgbANp3TZJbbwlmzVVG+BaUMw/Oka/F26R76SlJKlAAZydFpYF4hmMEF5sXf017bIWkKQoKScxBqDuw2FcmUw4EtxjQKoZ+neK1HyTp26LPwMY9CxTZaiGVltxBzpUM43RpsZ7ghCreVjRUN+LPGt5Kcx6U0PEmU4CxTbS8V+OUIVF99FXq+qDttq3VYT4VQcuIPc9d9iFDQ0mldtw6bIZZbaaQlDaEhKUpFAkC4Ae+YTBOWB98b9FO1SxDg0KzpJ1JGk2nGEb6lzKMWWiaph2yUtJ5AnTzm+yfFTstNsHohLsrjXWkg1LROM2rkKTdaFwtgVVSGJiyBvzFainjJ1pPVm3LrBt2Hn8MimOQxFUGnwFH+nZkdyYSxMtWfa41nGSPLRf1pJ2cTv09lctQqqYdhT6x5SzQdSTtyBDyaNnDiKORbm8tk/m0Z9qq7PfNLOYQYWR0UpRLDaywwnQlCTTrNT05DuD+EMFMWVEBpYDoHhNk0UNnYLJW2laDjJUAQdY3ETvB6PlzmaIaKUnUrOk9BAsptakODFWklKk6iLiNu6qVYRy2OQqm8RCFH4pND1E2qAReMugt3d+EScLBqlpaWB/AkA9dd2gJ1X2EowQlECBRTUOjG+MRVXWTx1LIavdcQhPlEDttKGTR2awCDqVEJHptJFmiJxLieSIR67QsQB3PEsO/EcCuw2vylFh3Fz4hpz0sQtYV3wUa89b8jgK5jZQkcuDlccQzeNXXijcusJbh1NmkpAQ44H0AalgK7a7pIIGciljMMGJVFk1L0K2onlxRXr4gxU/mcQTUuRTqq/xnd7tnUBCUrv8AENtdBUAeqtglIAzC4cZKpAxvs2jWocEVSlRqtXMkXmyUqU3IZcVjMHos4o6EC/aRbCeaVD81dZbPwcMA0Oq/rs9Eqxol515R0uLKu2yRmSnYLJ8VOwWxDVvgHWngnqtPpWoGBm0Y2B4Jcx0noVUWm8MUpm0JDxrelbftS/Sk7BaQT4paZi+5opV28RI3tRPIcx6DkVs5g/hZFtYpELEKMRDq0FKjUjnBqNmvIdwiwlg4BCSWioOPqHgtg8I+jnNglCUpFABQAaNy6wbwogYhIpv0LinlKVEdhGR3R+D+VpPfM740f4VmnVTLxIZ1fioUeqxWtSznUoq2mu7v2HshQRUCKSrYCfRa7ioeAhHYmMfbYh2xjLccVQJFnXyuEwXQWmsxjHU8JXxEnNzm/ks/GRK4iLecffWaqccUVKPScimTrpacYPqbZecVHwCbt4eVVSR5K845jUWleE8KXpa97Yke2MLucb5xq5RduwWFMrVBxySlaTjMvpHCaVrHJrGm09wfeVv0IuKha8GIh0laSOUZ0nn22VjYpSoK1YprstPZ+8kQcE40xXhRD4LaE7bzzAWgsE5cWYersU7QvxChQrOoDQkaBkDEkT4F9XmyehJHYbU3cfApxJPeRbg6kn05e9yaPc8SHcVsSbe1o+KOzd3z8IsmHirWrYhVruJgMG5WuNmTuKgcFCE3rcV4qRpPZaZYVxmPFq3qDQaswqDwUcp8ZXLs42Klsa1FwD7kPEtmqXEGhHJyjktD4RoTBTDEh5skd6LkPAaU8utNqi7crZorxt7RXXii1MmsklC9UUobWz6siuDMejxYwnahPqy97wWnCtUG6fqG1EIGpI7N3G/CJLz4rbyvqG13EQeD8ofmEwXitNi5I75ajmSkaSbRuE82XGx6qAcFpkHgtJ1D0nTk3Z7rTaa3y6WxcSPGbaOL5xuthW+nG9jA0P2r6E+m2FaEkiBZXyJiUVthHL0lUVJo0IGdSEb4Pq1sUqKVAhQzg3EdGS4y6h1lam3W1BSFpNCkjMQddk4RwfcUepKZswmqtAeT44GvWOnNxNcFoBXixo60KyKyibo1RKTtR92Xi4Gz0/uT39BtcObdr+ECHOqHePVa7LS22pa1BKUgkkmgA12XhVOzvCiJZDEoh0aFa3DynRqGTN8IwiIWO4Zer4d1PCWPITp5zdz2wfkgQtMGIuKT8PE0Wa8gzDoFkpSEpAAGgZrDcFbSedt4k0l7D+pZTRY5lC8bbPw6XIjBx8xCBU9yvEBdPJVmPMac9nYZ9xiJaW082cVba0lKknUQd2tomWx7EbBOlqJYWFoWNB9I1izGE0hZj2KIc7x5qv5NwZxzaRyEcRXA6GOqNb7FZH4lOxqdaP1Tl0wHnx/cnf6Tam7XD1HJCu+i12WZfKm5LCOUiY0VeIN6Gho/iN3MDkEkAAkm4AWQylma4SM47xopmDWLkalLGk+To08gAoBQZYtAYVQpLgDEwQKNRSU3jkV4yeTZaNkczdgJk0Wn2+lKhoUk6QchWD+EjbT7mLARpSy8DmSqvAX0E0PIeIrgS2dUY16cj2qeDy2T1Ky6YCT/AORuf0nI93X8o52py0MtLcdUENoSVKUcwAFSbLwgwjjpksnEdcIaB8FsXJGy/pyEv4mEMzbqhJ/E21DOR8IR2bdXFs4VSdSAEomDIKoZ4jMfFPkn77Ow0Q6xENqbeaUULQrOlQNCDkGe4JQjrqsaKh/xd41vKk5j0ihy/cOPlbXaci6ejlZ7FZfuDn/yNzstfu+7lXyRztTlqleBMYltWK9FkQqL9Cu++qDbVm3V4SYSQkuTUNKOO+oeC2O+PoHKbNw8O0ywgNtNpCEITmSAKAcXUWSxFsT6Fboh8hmJAF2P4KukXdAyDDYQxctWo73Ftb4geWj/ABJ2ZfuG/m2u05HCnvzP2sv3BT/5G52WvO77uVfJHO1OWVx0pgAbkIXEKFdJOKOxWRvMtjps4jhxC94bJ8ROfao9XGoneDcwl6x+XaISdSxek9BAspKilYooGhGo6RumWYWSmLBIDcQkK5Uq4J6jl+4Y/Kme3I4c9+Z+1l+4Gf8AyNzsted2mGyz+6OdqcsvYdxKSbmWWmxsxvtboFvY/AqTsEUV3OlxXOrhHt4266wgMNJzDoGKgRKlpHIrhem1dwt8MXFPCHRfbuiBhnq13xpK9oByvcMflTXbuV3PbJ78z9rLrgHPvkbnZa/p3aYaL+SOdqcsrw8mxOhaBsQnd4CuY2DcshEJzJZQB5o426wT+EGOI8JplR58Qerd4KuY9livBeUKOcwjR+oMr3DH5U122ru+2Tz5n7WXXAWe/JHOy1+7TDJXyVfanLxMO5n5RQrahO7wVU1GwfksA8k1DkO2vakcbdYP/hAmeLmbDbexA9e7RCj5J7Lbzg5K2znRCtA+aMr3DH5U125Htk9+Z+1l1wHng/dHOy153aYYq+Sudqcss4XpepdEQyFV5QSk+jIEZgXACtVsAsK/hN3VTjQlBUbgLzzW9lMIZlHA1TERC1p+LWg6gN0xMUywm9Tq0tgc5A9Nt6ZbbGZCQnYKZXuGPyprt3aW9snvzP2suuBM7H7o52WvO7TC9XyVfaMsuQkvj0ioacUyo8ihUdaevIDExipW6oBMQnfWq+OnOOkX9BtdxnsJghGKQoJiYkdzs331VcT0CptQXZt32Tw5lbRFW2lmIXzIFe2lqZXuGPyprtNrt3hT35n7WXXAydD90c7LX7tMLz8mX2jL9l8HI6ESKuqRjN/HTeOynTa+8UO67AxjEVDKxXmVhxB5RZmdyhiNhiAFii06UKGdJ5uLASScwsMIsISiFXjS+Dq0yQblmvCX05hyDlyClMwnDibl0hmidQvWduKOjL9w/wDNtdpyL56eVnsVl1wPnI/dXOy1+7TC7+Wc9GWLexOETym0FMNFEvN3XAnvh0HtyHMHZjw8ZcA8QHmxnGpQ5R1izMZDtxEM4l1lwYyFpNQRxQaZekcpdq8uqYp5B7waUA6zp1Zs+a7dei4pmGhkFb7yw2hI0qJoLNSGQwUtaod4bCVKHhKzqPSa5dMCE/K2vTa7d4E8PlM9isvGwTnA/dXP6TkUwuRysOei12WJ7JVtNpHdTR3xk+Vq6RdssUKKVJKVJNCDnB1ZEXg89iCr8Co1WwTmOtJ0HqNoCdQwfgH0rHhINykHURosMpqHaW6+4htpAqpazQAaybF5DkDg4tSUGqXIzMTyI1fG2a7VrXPy5BeiV4QRiPa2iW4UHwlZlL6Mw6eIpgW0NcY16cj8Xnh/aND6qsvGwamw1wrn9JtcOa1NzFwwY5WnB1Wuy6iliha5xAt8E/8AUoSMx8f17deTEQUQl+EecZeTmW2aG0WykNzaGTEpF2+tcBfSMx6KWkEWkVjRDrPgvpKDtzddoB4VZjYZweS6k+m0I2mq4lhI1lwD02kMFXf5pDYw8FtWOdia2hmgpEpg3H16HHuAnZnPVaaT5ysxiVKbBqllAxW0/wAPpNcl/CecJhkYyIRuioh4eAnUPKOjbZmBhGYaFbS0wygIQhOYAZuIpgjCjXGo/pVkfiE6VrebH1Tl75JZgjXDuD6ptwE8w7N3EwwgeUOJ+qbXcQFoKVAFJFCCKgiypU4uNl6CqXqNVIGdk/28ujLTqGyw8UbLUF2VG4RTJMJAouF7rqhwWk6z6BptB4PytuCgU0Sm9a1d84rSonXxNMG5cjxoyuxCsikkmi9cUBsQPXl48FEo8ZpQ6jbgjkG7iYXS063CNqTa4cSlaSlQBSRQg5jZSFLi5Giqe+VC6R8T1bLKQopUkpUDQpIoQeJv3Y/CJxLtDDS8HhRCh33IgaTy5rQUkgEwkvZDbSbyc6lnWo6TxVJVJka4hatiD67X7uLgpGL8aMUNiU5eMhSdYpbe3nEeKtSdhO7vGEcscNwEQgbTT02oKcUDntL50FLdQWomlz7Yorp19NpnKypYa7qhx8IyCTTlTnHXuHdu3brTKcuYsvhHHU1oXCMVCedRutBQZRETlYjHxfvIFGknl0q6buSyUICUJCUgUAAoAOKutjRclhq96h1w9JSPQbXbpbwISo/CRLq+sD0cR3NPpgybsSIWOuvp3Sy826nO2oLHQa+iwdZQ4k1SsBQ6eMutK5nVUXCNqcPwiRiq2izC1EwMa43qS6nGG0UNpw2TvJhXx5LhSesWnyP9AVfFcQfTafqN0uX0rQPTafOkYzDDQOlbw9FbPqIMdMW0DSGWyo7T6rSOAUlaoZUU4PCiFYw2ZuqyGm0obSlCEigSkUA6ON7ow1SyP9NDIQeckq9I3LrXi3cuAUmQRQrZLp/iUVeniN4wriFUol5CHRsoetO5fbXYRmDcGomq2070rnTd2U/7CAmpzCwm+FE0jkmqHn1YnxBcnqG6pxQbQKrWcVPObh22EDK4OESKBhlDY6EgcQVJgY1Ke9JZUee8dh25G9RMRArNzo3xvnGcbKbLXf8AYPYPA+NdQoJiXx3OzrxlXV6BU9FqXC1257LYaSuGUKtpd35z4qBjdoA6bU4gzKRxUOkVcxcdHxhePVkOQkU1EMGjjagpNmphAtRLJ4KxePFOkH3/AEBsnCDCDueEXjQEDVtBBucX4SubQOblyDWYTl1NxpDNE8l6yPqjo4r2OnboQmjDxLreq/OOg9uQqVRBS5Uwjh4Y8U+MLIebS42oKQoVCgbiPfwgmHZHJ3axjgKIl5J/IpOdIPjHTqHLkOxMS0xDoK3nVhCEjOpRNALNyDB+ClrVCWUALUPCWb1HaTxXspLSlsfjDXDbOs6R02INCCCNB0ZDssViKq5DE1KK97yj1WYjGg5DuBSdI0jnGiw99NtNqcdWlCEiqlKNABrJsnEcgMGnCVGqVxozDWG9Z8rZYqJUokqJqSTUk5Bio1c+i0e0Q5KIYEd854SujNzk6uLutvbqo+GRwFXvJHgnxunTkuw7gcYWptY0pNLOpATFtBflouOy0E+LnwlWpfBNkqFUqBHIbCwsLDjxYWCRVRoOW0mliSY2ZQzRHg44KtgvtBMYyJRCOxS9DjvtaNmc9VpvhAoiYxR3jRDtjFbHRp6a5MThTOkQjGMiHRRcQ9S5tHrOYD1Wh5bAMQcG0lqHZQEIQNAHGBSSlQBBuIIz2ME4p+GSTCk5vE+7Iu3VINUKUk8hpaLR3sQ7T41bRwzRCukC0ePhgedItHDw0H+AWjdbfm2jf2Xm2jf2Xm2jv2Xm2jhoZ820eNDPm/faPGYM+Z99piMwY8z77TIaGPM++0zGiH8z77TUZu5//X99puMyocfN/fadaHWR80LT0i6KQOZlNp+r/wCxWPioSPRafOA402iwPJUE9gtGxVe6YyJe/wD0dUr02pWgplR2Es0TBS5upzuOq7xpPjKPo02g8GpQ3AwKc3CcdUOE6rSo+rQOOCgQoAg3EHTYtlTsCmqM5a0jm9VuS/3tdk0tn3b7TLCl8LaSYeXA0XFLTceRA8I9Vpfg9LkwctZxEC9azepxXjKOk2p7wYiyVEb2746fTrtEQ1SU74jxkX9Xv2aTx3ElcE6+K0LlKITzqN1oOFKInCBwRj2cQ6LmknlOdXULNstpbaQlDaRRKUigA1Ae9Id+9xoY3jC42FSWXSORQraJRmQFDyTZ5HfNLHRYjOCOjcFhYWu4sclhTONthrTtsVd6kq5hW0a+aMwcS4fJaV6rYQRfeS5xsa3lJR2mto50gzCOYYSc6WUlw7TQWkEuUlbsMuNeT4cSrGHmigs2y0ltpCUNpFAlKQAOge+gc9DZJzpSeizRzto2WZ/NN+bZj8y3stD/AJhvZaG/MN+baG/R2vNtC/o7Xm2hP0drzbQf6M15toM/6VnzbQX6Iz5otAfojPmi0v8A0NjzBaA/QofzBaA/Qob/ANQtApzQcMPmhaGR3kOyOZAFkJ71CBzJFj/4l//EADkRAAEDAgIECwgCAwEBAAAAAAEAAgMEESExBRIgkRATFTJBUVJhcaHRFCIjMDNCgeFTsUDB8FDx/9oACAECAQE/AP8APALjYJtHUP5sZ3IaNqj9h/78rkur7HmPVclVfY8wuSqrseYXJVV2fMLkuq7PmFyXVdnzC5Mqux5j1R0dUj7D5eqdRVDc2HcnNc02cLfLpaOWqdaMYdfQqfQsMeMvvHyTI2RizAB4K6ui5FyJV1rLWWstZaydquFnC6n0XTy4tGqe70VVQS02Jxb1j/sPkaO0eat2s7Bg8+4KNjYmhjBYBXT5GsF3GyfpKmZm8f2jpem6zuKOmKfv3LleDv3ftcrwd+79rlaDv3ftcrQd+79rlaDv3ftcqwd+5DSkHWdybpGnd9yZM1/MN1rK4OBWkNH8V8WLm9I6v1/W1TQOqJRE3pUUbYWCNgsAi5V2l9UmODf6eqkkfIdZ5ufmAlpuFTaTew6suI6+lNeHC4yVwRYqtp+IksMjls6Ehs10x6cB/tErS1YWN4lhxOfh+/6+bT0jpscgnaNw91yexzHars1o6pLHcU7I5IOWkI+MhJ6Rj67NGOLgY3u/tFyqZTLK55+Rqnq2WANaGhArSLR7rkCQbhRv12hw6UbOBBThqkg7AwAClfqsJ7jtRxOkNmplKxvOxQDW5BayNjmn07HZYKSF0eeXBT1Ie0NccUZGtFyVUz8a7DIcFG68LUCqgWlcO/hbi4IuVQ74bvA7MMXGG5yQs0WCJRdbNca3rQcDkrq6mh1febls0R+EPygVVfWdwx88eIRcqh3w3eGwxusbJtmiwV1JPbBqJJz4AbJk5GDkHXV1KzUdsUZ+GgVV/Vdwx88eIRcqg/DdsQC1ytZSv6BtRPtggVKLt2KQ/DQKqvqnhj548U59lNJdpGxxlsFxqJvjtBA3WYtsUp9xAqp+qeFuBCfKnSXw2HyWcQuNQy22nBAo8NObNQKqfqHYfKmyXeBsVR1JSFxippBJGDtgq+GxAfdTSqj6h4XZFOkUT7yN8djScZAEg8FrqiqxE/VdkUDfZfKL2CY9E4bEPNQKm554X80pz1Tv+M3x2JGCRpY7IqpidTyFjlrqk0k+D3XYt/7JRV0EowdbxwWs09KfUxMzcpK7XwZgEx6jdc2CGGxFzUCpeeeF2RTnqCT4zPEf3s1dIyqZquz6D1Kpp5aZ2rIPQoOQcmuTXpr1FrPOq3NQw8WMc9mPJBSc47Ep1XEdSbJqvDuooY7MsTJW6jxcKo0EDjA63cfVP0ZVR/ZfwxQppx9h3FR0VS/Jh/OCg0U7OU7lFEyIWYNpmSCebuOxpJhjqHj8704rR0/H07XdIwPiP8AJqvYbOnackNnHRgf9IrRNeKWTUfzXeR6/VA3xHz2BBSOwtszRNmYY35FVVM+mkMb/AP6OCg0rJSjUf7zfMeCg0jTz812PUcFe/wAt0rG5lcdrZKMoG2Kc7WN9qtomVbNV2YyPUqikkpn6kg/astVNc9nNJCFTOMnneV7ZUD7zvXt1T/IV7dU/yFe31P8AIV7fU/yFe3VPbKFbUds70KqY5vO9Nle7Mk/lRlRFRlOdf5EsTJW6rxcKfQoOMJ/B9VJo6ojzbuxRjc3MWWqtVaqsrKysgmqME5KGCQ/ao6cjnIADL5lkWNOYXEx9kbh6LiI+yNw9FxEXZG4ei4iLsjcPRcRF2RuHouIi7I3D0XEx9kbh6IMaMgrf+D//xAA+EQABAwEDBwkGBQMFAAAAAAABAAIDBAURMRIgIUFRcbEGEBM0YYGRwdEiJDAyQlIUM6Hh8CNAgkNQU2Jy/9oACAEDAQE/AP7++5GVgxK6ePaunj2rp2bV0rVltKDgea4rJOxZDtiuu+G94ZinzPdhoRaXYoRIRIQoQpsKbAmwoQpsKEKEK6AHEJ9Cx2GhTUr4dJ0j4DjdgujJ0ldEhEujCDWoZAQcwISRoTxBCoi7UKqHt8EKuDt8EKyn2/om1dOfqTCx4vYb1kIsB0FVtF0f9RmHDOAvNyES6JOIGgfFDi03hUtpOacmbSNuv9025wDm4FFgIuKrab8PJcMDhmwM+pAKofk+yPi0dnSVQysG7fRSWGbvYfp7QpYnROLHi4hWTVFr+hdgcN/78UWq04OkgLhi3T65sLLmBBqldlPJ+B0b/tPgfREEY5kUQjYGNwCyVb0QBY/XpCa4tIcMQonCRgeNYvTow4Fp1pzS1xadWY1twuThc0nOpqSWqddGO/UqexIWaZfaP6KOnjjFzGgINTomv0OAKqLFp5dLRkns9FWWbNSaXC9u0eezmsy0o54xHIbnj9VJIyJuU8gBWpXCrl9j5Rh681lnLpGH+YlFqrW5NQ8dp526SEGqZt0Tj2HNs6znVbr3aGjH0H80KKFsTQxguAQanFrBe43BfjaYG7pG+IUb2SC9hB3FXIsDhcQrWsnoL5oR7OsbP24bs2xdNIN54ohWoLqt+/yHPHpeN6a1VLboHnszKWndUytibrUEDIWCNg0BAK0bbEZMVNpO3V3bd+ClmkmOVI4k9vMx7mHKYbj2Kgt57CGVOkbdY37eKY5r2hzTeCnNDgQReFalD+DnLR8p0j07sywuqd58kQrX64/u4Dni/MbvHFNaqxvu792ZyepvZdOdegeaDVb1eYWCnjOl2O79+Gdyfryx/wCFkOg4dh2d/FXK3qUTUpeMW6fX+dmZyf6p3nyRCtnrj+7gOeD81u8cQmtVc33aTdmWVH0dJGOy/wAdPNaMxnqpH9t3cNA4ZzHmNwe3EaVE8SsbINYB8QpYhIwsOsEeKIuNx5+T3VO8+SIVtddf3cBzwfmt3jiE1qrx7rJuzKHq0f8A5HBBSC55B2nic+zgRSRX/aOCuU35jrtp4nn5PdT7z5c1t9df3cBz0/5rN44hNCtAe6ybsyx5RJRsOzR4c1rU5gq3t1HSO/8AhzoIXTytibi43JkYY0MbgNHgqiQQxOkOoE/pmcnep/5HyRCtvrr+7gOen/NZvHEIBWiPdJNxzOTlVkudTu16R5+vNbNnGsiDmfO3DtGz0RBBuObydssx+9zDSflHZt79XZv5uUtWIqcQDF/AY+QzOTvU/wDI+SKtvrr+7gOeDRK3eOIQVeL6WTccyGV0LxIzEKirGVcQkZ3jYUCrRsaKsOWz2X7dR3+qqLJq4D7TLxtGn+eCMbwbrj4H0UFm1U5uZGe/QPE3KzeTzICJKk5TtmoevBAqWZkDDLIbgFaNc6unMzsNQ2D+Y9uZydHuQ3nyRVtddk7uA52G5wPaOasF9PIOw8M2hrpKKTLZhrG391SVsVWzLjPdrCBV6vQKBU9RHTsMkpuAVrWu+vdkt0MGA29p9NW/N5Pi6hbvPFFWub62Tf5DMjdlNDtoCkGWws2g8FhmxSvhdlxm4ql5ROb7M7b+0eiitmkk+u7foQrqY6ekb4hSWtRx4yDu08FU8pWAXU7bztPoqqsmq3Zczr+A3DOsaPo6GMHZf4klFWg/LqpHf9jxu8syzZulpWHYLvBXq0IehqHN1Yjv/sIIXTyNiZiTco2CNoY3AC7wU8gijdIdQJ8E4lxJOvMsSouLoTr0jzRcrUpfxDMtnzD9R/YcnbLLPe5hp+kefp4orlHViKnEIxfwGPkM2KR0Tw9uIUFS2dge1Fyq6Jkxym6CpKWWP5h8Sns+pqD/AE2E9uA8TcrO5OshIkqTlHZq79vDfzTSshYZHm4BWhWurZzKcNXYM6mqXU7r24awo6hkzb2lFyLk7JOIRjjP0jwXQxH6QhTw/aEKeH7QhTQfYE2lg+wJtHTn6Am0VN/xjwTKSmH+mPAKKKJnytA7h6IFXqaeOBhklNwCta1317shmhg1be0+Q1b/AIDHuYb2m5Mrzg8IVMbsCg8HArKWUg5ByDk1ya5NcmOQla3STcn2pSQj25B3aeF6qeUzALqdt52nR+mKqq2erdlTOv4DcPi3lZTtqy3bSst20rpH7T4rpH/cfErpX/cfErpZPuPifVF7jiT4/wCxf//Z;" vertex="1" parent="1">
          <mxGeometry x="329" y="512.61" width="50" height="50" as="geometry" />
        </mxCell>
        <mxCell id="jNw6yd0TFnMZiaIHxZhw-2" value="" style="shape=image;verticalLabelPosition=bottom;labelBackgroundColor=default;verticalAlign=top;aspect=fixed;imageAspect=0;image=data:image/jpeg,/9j/4AAQSkZJRgABAQAAAQABAAD/2wCEAAYEBQYFBAYGBQYHBwYIChAKCgkJChQODwwQFxQYGBcUFhYaHSUfGhsjHBYWICwgIyYnKSopGR8tMC0oMCUoKSgBBwcHCggKEwoKEygaFhooKCgoKCgoKCgoKCgoKCgoKCgoKCgoKCgoKCgoKCgoKCgoKCgoKCgoKCgoKCgoKCgoKP/CABEIAZABkAMBIgACEQEDEQH/xAA1AAEAAAcBAAAAAAAAAAAAAAAAAQIDBQYHCAQBAQACAwEBAAAAAAAAAAAAAAAEBgIDBQEH/9oADAMBAAIQAxAAAADqkAAAAAAAAAAAAAAAAAAAAAAAAAAAAAABDyevYxS0yMNgtZ+XbjtZqOnl5uBp2X33cjTR7uVpl57uZpoy3K01F7uRp2p57t5qX04+7Ra4uWtmq0XaPjEeAAAAAAAAADy6WlYbb1np2nYouT45Th1dNRTZJ1OLKZKxzmjIx3TpYebZ0rHbMlg2zJXm2KWDbMlg2TQhD3bG6WqHme0Nm8wufr7Rcw764PPyQQowAAAAACyVOW+l57sdpxt+idI9ynSXnD20th32HlqBvD06M9DR3/Vw2c9uh44587uiXmzneHRMfM+dXRLzPnaHRUrZzu6Gp+58+N++b3ZoqG6rNs26vZVjEqTJGLPOFei986I2Nxn0PXuLsUcjmgAAAJJ9Q7/daYjTXjdUU45ZVM/zjb9f1Yhl0XB1hgAAAAAAAAAAWm7PfdJak7IxfqdTlmNztvd70K9COTqjJOZOm6vWAhwwAAKfH3Q3MNikiPclQ3hrPrbiaJxXIYAAAAAAAAAACXGueJXQ6f8AbxpeZU/rRiGX83iYvzF2LpTo9TT5HuWKHTPM+zYXN36K7VwAANA6izLELf05Yxb9++9u2O+VDkBowAAAAAIUyqtcnud3eb0eYxDwBCNI5dxuaFj+gwRZ53frHjXr3mVz32q6w5tf44lynF7PfIXS2QzdkTWi71WiB5iAhGice2+aW5dyPs8eTas+sIwjUuAAAAAefTGyTtjWWnac2xZTjVNI60sYxy3L1ZWPm0NlczNHN7Ic2b0hVu/wi1c/l/Feq+futccVTZHK6nn6sxrJuRTEIo3N0HrLc2me9dkYJc7pXNNc7GrlFDTFAeH3Wj33j2aE9tsUMxxDOovvTMYRrdbAAAWepzFu6fqxtHo3GERuRhc8VtZlVw0YRG/2HKRAj7senzPfOiM/476Fg1DP4RR+BSqRAAGqNHb50N2boRhM6m99o6m2zwqMEeAAsN+x7PPkqZGy2iOfYDsKL50ghHg1UABLNqzKRrfEIR6N/BvZrmu341cw/L5kasQiea4Wi8PctI6r7CxLfYeZoXDwSrfD0+d66ov3NvSUD5+GvmgAa20B0Hz51brETOvunb2ntw8aiBH5wDHMjxvPZyhE79vjsTXmxY2HRY41PAAk5P35zZItSEW+ztv686p0V+qI9OAAAAxLmrsLSO6y6nEi5Q6Z5n2dhxd8CJQgANec9dDc9dO7QiTOzuPcmm9ycihhH5gDG8kxrPbymjN2btDYuvtixdXQw5tJAA0rqTP8H9+hUFeHnT3NtnHci9+bh5CAAAAWi7wZcdwv9gl/VV5s0fXYkfN6YfykHgGveeuhueejeAl9rcW5dNbl5VCDRygGN5Jjnu3liarNLvkmw8C2DG0b9GFFAA5wxbMcVg/SqEK8MJnVPq8Xt6HywPcAAAABA5wwnMcO3/UUIwzmdY3a2XON8mDzWBr7nroXnubeZUUzt7g3Npnc3NoAaOUAx7IcfbuYp559P0CTPsHzzTG3qJlCAA0bg23tTcb6DRVmjqb7yvT+4Oz87DfzgAAAEs2HtvPdthHZ9ZVKeU5aumKsI6fkwAGvue+hOe5d6QildvcG5dNblgfPw08oBYb9Y/N3NU80/K+hS5zhebYxt4DsUAACyc9dQaL5VnxJWhxrbHofnbI53H30oV7BRAeAAAQ5xzjTWm6+aFannbZdyag6r21q7DGhAAa+576C59lXsJHc3FuPTu4oXz0NXKAWa82rHbzdNNUrv0WTM8Ry5G3bEsnz4ABjmRsNnNMuytdVD6JRVYaJl+3Jz5V6XG6RanzHuVXJ3jnkwfSsWI6pextTYXZYVp89P0SarP5pK9+mY5fuvz+ib8xBBAA1zoDfehJN9Df29zbf1JtuH87DXywHg9/mxy5qqRqVL6RJlGOZA0bzQjb/AJ4AABLqTbssWbzlDY2vafeqMKsNMyjLWlzyoSV5dvtCSvLty88nopyM/PJXyWVrsvQ1W5dugBu44AAGrtF7s0nI+ghu7G8Nq6z2ZE+cBhzQEk8pzguPipH0eW7W6tqdBxknvnzgAAABYL+17NMY50VaOFYdFSbQsfL7WES5TRwl4zJmV2k6tae/ceUdTk6+2FM69ZDZGAAAA0tqLYWvpH0mEYR29HoTYOKZXE+YhjDAA03jmxtf0u8STzz82dt++a82HeKME6EAAAAAAAAAAAAAAlmxNt58tMs0r6rCMMky19LeyEYfyoHgAFo03vvU1esFhqT1avYJtvakvnV5GylOpc6sHoAAAAAAAAAAAABzlm2j87lGMG61tx6g6q8rl4EeigAALJe2vPTFXLcaodup1KlSPncc41zW63L2SxW9WTj3BLGdHiQIoRAAAAAABAigIrRhOuZsrUeCY9havPJVpSbQMg36c13j5fVo+aBjCAAAAlwnOIQ5GsamRWSnd+nPUm0e041Zvcafppx2YV5/K3a/Y8cuXnuh4ZPfffL4JGdwlttPzZcqdsotl1o2qh7uu3ntPnz33TxW/wAucr02Wv5N03w0vTQlzKFGvRnZUKVbJehrtXSs93zoAY8YAAAAABb7g15Yj5M58vFnYlNfPLzJNuj6ZI2yiqw89pQrQ8UIV5fMvPJ6JGfmp+qn5n5KXrpebvHQ9tBv8Pn9/mzkeDy3DybJNv8AJcpZW+yeXMbz0sNXe/eGYdLkax2dOk1gPYoAAAAAAAAAEERLLUY+0YV2Pvnh6XjzQ9Q8svsPfHD2jww9574I+568dT0Pcac0zLEPQAAAAAAAAAAAAAAAAAAAAAAAAAAAAAAH/8QAJxAAAQIFBAIDAQEBAAAAAAAAAQIGAwQFBxEAEBIgCDAVF0AUcFD/2gAIAQEAAQIA/wAiJnanN3CjXaiXjXedV6lXqN6jer7q+6vur7q+6/uv7rF6xewXrReqHeeHeGUuhT3MFfmr7jr15qw+Yi+Wc8uWc5znOc51nOiSc5OqW4aFeRtXH/FUp953bmZjOSrlnOc51nOemc5znOds6IZ9xGc8fe7HI8ndyznOc5znIO2c5znOc51ncbAY1Izds7jA+x1OB1uTOs5KqO2KfZ+UshDshDsomzAs4LO/T/0/9P8A1B9QfT/0/wDT5s8bOKsyuysSyMxY+bszVLfrR0hRLUvz1x4ty3hnOSWTbBs27CcfkxiuN122dnJTG0hNsNzeq/zqznKdWstfj9WHuzHFRMbWscvpmIzvres6saxf0qWayiJs/wBpzsrvamu+i9tZ2xb9uQIX6H27XK7ODectvXro6vw297C1b0eRlRAxjx6og/Qo3Dru7RrUJWnVSloxpr1BB7E3cncaJY9N9pMWPFcCHLAnges0InReqANK1c6n7ENGc7K04I+1ElUD119xV+89WuBMTATxQaW6qJeFt3B3IuW392TQYadK1fyW2GrPTPabUtW1tYKfVPzj1u5NzPUaxs0LitR1bPFsOZhmG22Sx2hv5DwN7DxO1cXD0NAWihp9LpcL0d+MbY3HSnT1uLgg6IMuB08hEHewC+zuiIGALKoT6HLW3a4+tMoMvbRdrZ9mqG2NQYtrnz6L/p38fFdn2U6A1Y5I7xV3Md3RmW6bdu0oxjjW207LQzEDR2ps6ynF3v0nfx6Pa4RG9iwnvfFzjcC2lswnth8squUje1Ll733G/j0e1xjvYkdo0V3VnYasuyvVcNpTEDe19d7X16ePPe5GjoAasRodrwVXGsMqgy0D1HV9G5vYaq9r6dPHrvcnR0NYsQB28gZ3jx42Fo49jtpKk7MyfB6306ePPe5WuISE2KSO15o3HiU29kfYrT+k9gumxut8+nj13uRriEpTY4DtdDXHitFKR7Dq8qNlBpK63y0Rg68ee9xtcQkIskO10YXHitNDi+xWrux9lFsQ+t8tjt49d7hjiEhNlgO15JXjx42wnh7IinLP7SsGWR1vludePXe4GgkJCbNAdr1SHHjxs1VR7Lp10Da2FOA63y0N/Hru/QEhITZ4Ds8qYUlPGSmG7WPUo3UcpG1gqP2vn08ex2fICQkJtEB2xcOjceJSyHJJzPpuw9ilSVCUlmtSO19DobePY7PMBISE2oCe74oK4fHjxaLqodaz0zMR31cdQKVBSbItbvfYgnbx7HZ1JSAALXaHci5bY44KSJSZo1yqc+INUXPzztrN0nC4VJUFBSWS15GU736Vv4+DtXkwwABbcj0REvlo8SkgpKSCgoKSCFBQUltN5tUH0X/XobeP6O1QShISAwyn0qQ7mKpBSU4IIIIKSFBSWgyqDRvT5Br0NrCQ+0VMaGEhLWWkekhwteuM8oKSkpKSCFCj0FsW2Qj0nXkFMb2OhdlacEuEhMBUuv1nVUb0/bmat9FZYZkFgSdsKWxIUP1nV8ZzR0NWslu9xpVKQniy53/gRC76lshFHle91ZJKUpCbaz4/edXOrgG1uqYB3dNPSlKUokYtLnf3HV23PoaGrBUf0u+lpQlCUNqrQYv7btvvYaloDTo/pdlJShKEoSihVeSnM/ozFiv+5sQ7DVkWv6jp30VKUoCAmXiSTilqumJnJPLOc5znOds5znOSqpuSuXVcrpUFA7Mls0yR9a016iJSlASEhIQjSJwVNNW+a+bNc+eNfLhLjU5VOdTpU7Vu+I8lvOK84zwmHROzykrCwsKCtNdvNNu+1SatQQkJCQkJ48ePEpKSkpKSlSVJWlaVpiIiIiJiJiJipiJiBQVpQXpmMhs0Ae/E/SpulhISE8ePHiUlJSUqSUqSpKkqStK0xExExERUxExUxUrC9UZvtS1MGF+I6mJGLRV0tcqUYxjBSUlJSpKkqSpK0rTETETFETS4YpkBkyNqaPbqBC/RjiYZgfymU/i/h/h/g+P+NNM+L+J+I+IFJTTEySYIA/yT/8QAVhAAAQIDAgcJCAwNAwQDAAAAAQIDBAURACEGEiAxQVGREBMiMGFxgaGxFDJCUmKSwdEVIyZAQ3J0g5SiwuEHJDNTVFVjZIKEstLiRGWkNFBwkyVFc//aAAgBAQADPwD/AMRwMCkqjYyGhwNLrqU9ptgtC1C5zDrUNDIU5/SDbBpsnFVGu8qIf1kWkSfycHMV86Ej7VpaO8lccrnUgWhfBksSed9I9FmvBkbvTEj+2w0SNX0kf221SM/SR/bZX6j/AOT/AI2V+o/+V/jZf6iH0r/Gy/1GPpX+Nl/qIfSf8bK/UX/K/wAbH9RH6T/jYaZEr6SP7bN6ZE50RI/ttDeFJHxzRCT6LQB7+URo5nEG0lP5SAmKeZKD6bYNqpjtzBHOwD2KtgnEUCpnvBOh5laeulLSSYUEFNoF8nMEPJrsrYEVBBGv3vKZAzjzWOaYJFUoJqtXMkXm1FKbkMvqMweizTpCB6TbCKbVEVNX0tn4Nj2pP1b9psXF4zhK1HwlHGO0259we8btw2BN4BOsi04lKwqXTOLh6aEuEp2GotOoQpRNoaHj29K0+1OdXBOwWwenxQ03F9yRSvgIqiCTyHMeg+84SWwbsXHvtw8O2KqccNALRMUpcLg0lUMxeDFOD2xXxU+Dzm/ms9FPrfiXXHnlmqnHFFSieUn37rtO8G1Ia30x0AnPDRCiaDyFZ09Y5LSrCqGK5e9iRCRV2Gcucb6NI5Rd7wl+DErVGzJyleC20nv3VeKkenMLTLCqP36OcxIdB9phkHgNj0q5T1ZHLxh4o5cRARbUVBPuMRLRqhxs0KbM4RJTL5riMTcDg0uREU0p1K1p2WqLuNgsGpM9MJgujaLkoHfOKOZKeU/faOwnm7kfMF3ngttJ71pGhKfSdJyQBU0Fp5OQFSyVRb7Z+EDeKjzjQWwliQDEqgYQalulR+qDaIUPxueNoOpqGKusqFoEflJ3GK+Kygeu0mHfzOZK5t7H2bYPjPFzM/OpH2bYNjO9Mz/MD1WwZGdcxP8AM/dbBj/cPpJ9VsF/9w+kn1WwX1TD6SbYL6ph9JNsF9Uf9JNsF9Uw+km2C+qYfSTbBf8A3D6SfVbBjXMfpJ9VsGjmcmQ/mPutg6RdEzMfPJ/ttIz3kwmaedaD9m0sP5OcRyfjNtn0WTikw0+VXQHIUdoVadtpJhY6Af5FFaCdoIthRLQpT0oedQm8rhyHR1X9VlNuFDiVIcTnSoEEc4OStpxDjS1IcQQpKkmhSRmIOg2GEUKJdM1pE3YTXGzd0JHhDlGkdPGIYZW68tKG0JKlKUaBIF5Js5hbPlOtqUmWQ5KIVs6RpWeVXUKDIpnNpxhEhuKi/wD42XKvDjqfbHB5KNXKeu2DsgCFswKYmKSP+oifbFV1gG5PQLACgFBq97i0onjWJNYBiJGhSk8IcyheNtltpciMGokuAX9yRCr+ZK/XttEQMU5DRjLjEQ2aLbcTiqTzjIiJfGsRcG6pmJZWFtrTnSRZnCmQNRrYCH0+1xDQ+DcGfoOcch4vuKWMyGDco/GDHiCDeloG5P8AEeoHXkFSglIJUTQACpJ0Clm4FtmbYSshyNNFMwixVLOoqGlXJmHP78FpdhXBYkSkMxiB7TFIHCRyHWnk7LRuD80dgJk3iPIvSod64nQpJ0g5Bwcwna31eLARhDMQCbhU8FfQTsJ4puHYceeWENNpK1qOYACpNnMIsJZhNHSqj7h3sHwWxcgbANp3TZJbbwlmzVVG+BaUMw/Oka/F26R76SlJKlAAZydFpYF4hmMEF5sXf017bIWkKQoKScxBqDuw2FcmUw4EtxjQKoZ+neK1HyTp26LPwMY9CxTZaiGVltxBzpUM43RpsZ7ghCreVjRUN+LPGt5Kcx6U0PEmU4CxTbS8V+OUIVF99FXq+qDttq3VYT4VQcuIPc9d9iFDQ0mldtw6bIZZbaaQlDaEhKUpFAkC4Ae+YTBOWB98b9FO1SxDg0KzpJ1JGk2nGEb6lzKMWWiaph2yUtJ5AnTzm+yfFTstNsHohLsrjXWkg1LROM2rkKTdaFwtgVVSGJiyBvzFainjJ1pPVm3LrBt2Hn8MimOQxFUGnwFH+nZkdyYSxMtWfa41nGSPLRf1pJ2cTv09lctQqqYdhT6x5SzQdSTtyBDyaNnDiKORbm8tk/m0Z9qq7PfNLOYQYWR0UpRLDaywwnQlCTTrNT05DuD+EMFMWVEBpYDoHhNk0UNnYLJW2laDjJUAQdY3ETvB6PlzmaIaKUnUrOk9BAsptakODFWklKk6iLiNu6qVYRy2OQqm8RCFH4pND1E2qAReMugt3d+EScLBqlpaWB/AkA9dd2gJ1X2EowQlECBRTUOjG+MRVXWTx1LIavdcQhPlEDttKGTR2awCDqVEJHptJFmiJxLieSIR67QsQB3PEsO/EcCuw2vylFh3Fz4hpz0sQtYV3wUa89b8jgK5jZQkcuDlccQzeNXXijcusJbh1NmkpAQ44H0AalgK7a7pIIGciljMMGJVFk1L0K2onlxRXr4gxU/mcQTUuRTqq/xnd7tnUBCUrv8AENtdBUAeqtglIAzC4cZKpAxvs2jWocEVSlRqtXMkXmyUqU3IZcVjMHos4o6EC/aRbCeaVD81dZbPwcMA0Oq/rs9Eqxol515R0uLKu2yRmSnYLJ8VOwWxDVvgHWngnqtPpWoGBm0Y2B4Jcx0noVUWm8MUpm0JDxrelbftS/Sk7BaQT4paZi+5opV28RI3tRPIcx6DkVs5g/hZFtYpELEKMRDq0FKjUjnBqNmvIdwiwlg4BCSWioOPqHgtg8I+jnNglCUpFABQAaNy6wbwogYhIpv0LinlKVEdhGR3R+D+VpPfM740f4VmnVTLxIZ1fioUeqxWtSznUoq2mu7v2HshQRUCKSrYCfRa7ioeAhHYmMfbYh2xjLccVQJFnXyuEwXQWmsxjHU8JXxEnNzm/ks/GRK4iLecffWaqccUVKPScimTrpacYPqbZecVHwCbt4eVVSR5K845jUWleE8KXpa97Yke2MLucb5xq5RduwWFMrVBxySlaTjMvpHCaVrHJrGm09wfeVv0IuKha8GIh0laSOUZ0nn22VjYpSoK1YprstPZ+8kQcE40xXhRD4LaE7bzzAWgsE5cWYersU7QvxChQrOoDQkaBkDEkT4F9XmyehJHYbU3cfApxJPeRbg6kn05e9yaPc8SHcVsSbe1o+KOzd3z8IsmHirWrYhVruJgMG5WuNmTuKgcFCE3rcV4qRpPZaZYVxmPFq3qDQaswqDwUcp8ZXLs42Klsa1FwD7kPEtmqXEGhHJyjktD4RoTBTDEh5skd6LkPAaU8utNqi7crZorxt7RXXii1MmsklC9UUobWz6siuDMejxYwnahPqy97wWnCtUG6fqG1EIGpI7N3G/CJLz4rbyvqG13EQeD8ofmEwXitNi5I75ajmSkaSbRuE82XGx6qAcFpkHgtJ1D0nTk3Z7rTaa3y6WxcSPGbaOL5xuthW+nG9jA0P2r6E+m2FaEkiBZXyJiUVthHL0lUVJo0IGdSEb4Pq1sUqKVAhQzg3EdGS4y6h1lam3W1BSFpNCkjMQddk4RwfcUepKZswmqtAeT44GvWOnNxNcFoBXixo60KyKyibo1RKTtR92Xi4Gz0/uT39BtcObdr+ECHOqHePVa7LS22pa1BKUgkkmgA12XhVOzvCiJZDEoh0aFa3DynRqGTN8IwiIWO4Zer4d1PCWPITp5zdz2wfkgQtMGIuKT8PE0Wa8gzDoFkpSEpAAGgZrDcFbSedt4k0l7D+pZTRY5lC8bbPw6XIjBx8xCBU9yvEBdPJVmPMac9nYZ9xiJaW082cVba0lKknUQd2tomWx7EbBOlqJYWFoWNB9I1izGE0hZj2KIc7x5qv5NwZxzaRyEcRXA6GOqNb7FZH4lOxqdaP1Tl0wHnx/cnf6Tam7XD1HJCu+i12WZfKm5LCOUiY0VeIN6Gho/iN3MDkEkAAkm4AWQylma4SM47xopmDWLkalLGk+To08gAoBQZYtAYVQpLgDEwQKNRSU3jkV4yeTZaNkczdgJk0Wn2+lKhoUk6QchWD+EjbT7mLARpSy8DmSqvAX0E0PIeIrgS2dUY16cj2qeDy2T1Ky6YCT/AORuf0nI93X8o52py0MtLcdUENoSVKUcwAFSbLwgwjjpksnEdcIaB8FsXJGy/pyEv4mEMzbqhJ/E21DOR8IR2bdXFs4VSdSAEomDIKoZ4jMfFPkn77Ow0Q6xENqbeaUULQrOlQNCDkGe4JQjrqsaKh/xd41vKk5j0ihy/cOPlbXaci6ejlZ7FZfuDn/yNzstfu+7lXyRztTlqleBMYltWK9FkQqL9Cu++qDbVm3V4SYSQkuTUNKOO+oeC2O+PoHKbNw8O0ywgNtNpCEITmSAKAcXUWSxFsT6Fboh8hmJAF2P4KukXdAyDDYQxctWo73Ftb4geWj/ABJ2ZfuG/m2u05HCnvzP2sv3BT/5G52WvO77uVfJHO1OWVx0pgAbkIXEKFdJOKOxWRvMtjps4jhxC94bJ8ROfao9XGoneDcwl6x+XaISdSxek9BAspKilYooGhGo6RumWYWSmLBIDcQkK5Uq4J6jl+4Y/Kme3I4c9+Z+1l+4Gf8AyNzsted2mGyz+6OdqcsvYdxKSbmWWmxsxvtboFvY/AqTsEUV3OlxXOrhHt4266wgMNJzDoGKgRKlpHIrhem1dwt8MXFPCHRfbuiBhnq13xpK9oByvcMflTXbuV3PbJ78z9rLrgHPvkbnZa/p3aYaL+SOdqcsrw8mxOhaBsQnd4CuY2DcshEJzJZQB5o426wT+EGOI8JplR58Qerd4KuY9livBeUKOcwjR+oMr3DH5U122ru+2Tz5n7WXXAWe/JHOy1+7TDJXyVfanLxMO5n5RQrahO7wVU1GwfksA8k1DkO2vakcbdYP/hAmeLmbDbexA9e7RCj5J7Lbzg5K2znRCtA+aMr3DH5U125Htk9+Z+1l1wHng/dHOy153aYYq+Sudqcss4XpepdEQyFV5QSk+jIEZgXACtVsAsK/hN3VTjQlBUbgLzzW9lMIZlHA1TERC1p+LWg6gN0xMUywm9Tq0tgc5A9Nt6ZbbGZCQnYKZXuGPyprt3aW9snvzP2suuBM7H7o52WvO7TC9XyVfaMsuQkvj0ioacUyo8ihUdaevIDExipW6oBMQnfWq+OnOOkX9BtdxnsJghGKQoJiYkdzs331VcT0CptQXZt32Tw5lbRFW2lmIXzIFe2lqZXuGPyprtNrt3hT35n7WXXAydD90c7LX7tMLz8mX2jL9l8HI6ESKuqRjN/HTeOynTa+8UO67AxjEVDKxXmVhxB5RZmdyhiNhiAFii06UKGdJ5uLASScwsMIsISiFXjS+Dq0yQblmvCX05hyDlyClMwnDibl0hmidQvWduKOjL9w/wDNtdpyL56eVnsVl1wPnI/dXOy1+7TC7+Wc9GWLexOETym0FMNFEvN3XAnvh0HtyHMHZjw8ZcA8QHmxnGpQ5R1izMZDtxEM4l1lwYyFpNQRxQaZekcpdq8uqYp5B7waUA6zp1Zs+a7dei4pmGhkFb7yw2hI0qJoLNSGQwUtaod4bCVKHhKzqPSa5dMCE/K2vTa7d4E8PlM9isvGwTnA/dXP6TkUwuRysOei12WJ7JVtNpHdTR3xk+Vq6RdssUKKVJKVJNCDnB1ZEXg89iCr8Co1WwTmOtJ0HqNoCdQwfgH0rHhINykHURosMpqHaW6+4htpAqpazQAaybF5DkDg4tSUGqXIzMTyI1fG2a7VrXPy5BeiV4QRiPa2iW4UHwlZlL6Mw6eIpgW0NcY16cj8Xnh/aND6qsvGwamw1wrn9JtcOa1NzFwwY5WnB1Wuy6iliha5xAt8E/8AUoSMx8f17deTEQUQl+EecZeTmW2aG0WykNzaGTEpF2+tcBfSMx6KWkEWkVjRDrPgvpKDtzddoB4VZjYZweS6k+m0I2mq4lhI1lwD02kMFXf5pDYw8FtWOdia2hmgpEpg3H16HHuAnZnPVaaT5ysxiVKbBqllAxW0/wAPpNcl/CecJhkYyIRuioh4eAnUPKOjbZmBhGYaFbS0wygIQhOYAZuIpgjCjXGo/pVkfiE6VrebH1Tl75JZgjXDuD6ptwE8w7N3EwwgeUOJ+qbXcQFoKVAFJFCCKgiypU4uNl6CqXqNVIGdk/28ujLTqGyw8UbLUF2VG4RTJMJAouF7rqhwWk6z6BptB4PytuCgU0Sm9a1d84rSonXxNMG5cjxoyuxCsikkmi9cUBsQPXl48FEo8ZpQ6jbgjkG7iYXS063CNqTa4cSlaSlQBSRQg5jZSFLi5Giqe+VC6R8T1bLKQopUkpUDQpIoQeJv3Y/CJxLtDDS8HhRCh33IgaTy5rQUkgEwkvZDbSbyc6lnWo6TxVJVJka4hatiD67X7uLgpGL8aMUNiU5eMhSdYpbe3nEeKtSdhO7vGEcscNwEQgbTT02oKcUDntL50FLdQWomlz7Yorp19NpnKypYa7qhx8IyCTTlTnHXuHdu3brTKcuYsvhHHU1oXCMVCedRutBQZRETlYjHxfvIFGknl0q6buSyUICUJCUgUAAoAOKutjRclhq96h1w9JSPQbXbpbwISo/CRLq+sD0cR3NPpgybsSIWOuvp3Sy826nO2oLHQa+iwdZQ4k1SsBQ6eMutK5nVUXCNqcPwiRiq2izC1EwMa43qS6nGG0UNpw2TvJhXx5LhSesWnyP9AVfFcQfTafqN0uX0rQPTafOkYzDDQOlbw9FbPqIMdMW0DSGWyo7T6rSOAUlaoZUU4PCiFYw2ZuqyGm0obSlCEigSkUA6ON7ow1SyP9NDIQeckq9I3LrXi3cuAUmQRQrZLp/iUVeniN4wriFUol5CHRsoetO5fbXYRmDcGomq2070rnTd2U/7CAmpzCwm+FE0jkmqHn1YnxBcnqG6pxQbQKrWcVPObh22EDK4OESKBhlDY6EgcQVJgY1Ke9JZUee8dh25G9RMRArNzo3xvnGcbKbLXf8AYPYPA+NdQoJiXx3OzrxlXV6BU9FqXC1257LYaSuGUKtpd35z4qBjdoA6bU4gzKRxUOkVcxcdHxhePVkOQkU1EMGjjagpNmphAtRLJ4KxePFOkH3/AEBsnCDCDueEXjQEDVtBBucX4SubQOblyDWYTl1NxpDNE8l6yPqjo4r2OnboQmjDxLreq/OOg9uQqVRBS5Uwjh4Y8U+MLIebS42oKQoVCgbiPfwgmHZHJ3axjgKIl5J/IpOdIPjHTqHLkOxMS0xDoK3nVhCEjOpRNALNyDB+ClrVCWUALUPCWb1HaTxXspLSlsfjDXDbOs6R02INCCCNB0ZDssViKq5DE1KK97yj1WYjGg5DuBSdI0jnGiw99NtNqcdWlCEiqlKNABrJsnEcgMGnCVGqVxozDWG9Z8rZYqJUokqJqSTUk5Bio1c+i0e0Q5KIYEd854SujNzk6uLutvbqo+GRwFXvJHgnxunTkuw7gcYWptY0pNLOpATFtBflouOy0E+LnwlWpfBNkqFUqBHIbCwsLDjxYWCRVRoOW0mliSY2ZQzRHg44KtgvtBMYyJRCOxS9DjvtaNmc9VpvhAoiYxR3jRDtjFbHRp6a5MThTOkQjGMiHRRcQ9S5tHrOYD1Wh5bAMQcG0lqHZQEIQNAHGBSSlQBBuIIz2ME4p+GSTCk5vE+7Iu3VINUKUk8hpaLR3sQ7T41bRwzRCukC0ePhgedItHDw0H+AWjdbfm2jf2Xm2jf2Xm2jv2Xm2jhoZ820eNDPm/faPGYM+Z99piMwY8z77TIaGPM++0zGiH8z77TUZu5//X99puMyocfN/fadaHWR80LT0i6KQOZlNp+r/wCxWPioSPRafOA402iwPJUE9gtGxVe6YyJe/wD0dUr02pWgplR2Es0TBS5upzuOq7xpPjKPo02g8GpQ3AwKc3CcdUOE6rSo+rQOOCgQoAg3EHTYtlTsCmqM5a0jm9VuS/3tdk0tn3b7TLCl8LaSYeXA0XFLTceRA8I9Vpfg9LkwctZxEC9azepxXjKOk2p7wYiyVEb2746fTrtEQ1SU74jxkX9Xv2aTx3ElcE6+K0LlKITzqN1oOFKInCBwRj2cQ6LmknlOdXULNstpbaQlDaRRKUigA1Ae9Id+9xoY3jC42FSWXSORQraJRmQFDyTZ5HfNLHRYjOCOjcFhYWu4sclhTONthrTtsVd6kq5hW0a+aMwcS4fJaV6rYQRfeS5xsa3lJR2mto50gzCOYYSc6WUlw7TQWkEuUlbsMuNeT4cSrGHmigs2y0ltpCUNpFAlKQAOge+gc9DZJzpSeizRzto2WZ/NN+bZj8y3stD/AJhvZaG/MN+baG/R2vNtC/o7Xm2hP0drzbQf6M15toM/6VnzbQX6Iz5otAfojPmi0v8A0NjzBaA/QofzBaA/Qob/ANQtApzQcMPmhaGR3kOyOZAFkJ71CBzJFj/4l//EADkRAAEDAgIECwgCAwEBAAAAAAEAAgMEESExBRIgkRATFTJBUVJhcaHRFCIjMDNCgeFTsUDB8FDx/9oACAECAQE/AP8APALjYJtHUP5sZ3IaNqj9h/78rkur7HmPVclVfY8wuSqrseYXJVV2fMLkuq7PmFyXVdnzC5Mqux5j1R0dUj7D5eqdRVDc2HcnNc02cLfLpaOWqdaMYdfQqfQsMeMvvHyTI2RizAB4K6ui5FyJV1rLWWstZaydquFnC6n0XTy4tGqe70VVQS02Jxb1j/sPkaO0eat2s7Bg8+4KNjYmhjBYBXT5GsF3GyfpKmZm8f2jpem6zuKOmKfv3LleDv3ftcrwd+79rlaDv3ftcrQd+79rlaDv3ftcqwd+5DSkHWdybpGnd9yZM1/MN1rK4OBWkNH8V8WLm9I6v1/W1TQOqJRE3pUUbYWCNgsAi5V2l9UmODf6eqkkfIdZ5ufmAlpuFTaTew6suI6+lNeHC4yVwRYqtp+IksMjls6Ehs10x6cB/tErS1YWN4lhxOfh+/6+bT0jpscgnaNw91yexzHars1o6pLHcU7I5IOWkI+MhJ6Rj67NGOLgY3u/tFyqZTLK55+Rqnq2WANaGhArSLR7rkCQbhRv12hw6UbOBBThqkg7AwAClfqsJ7jtRxOkNmplKxvOxQDW5BayNjmn07HZYKSF0eeXBT1Ie0NccUZGtFyVUz8a7DIcFG68LUCqgWlcO/hbi4IuVQ74bvA7MMXGG5yQs0WCJRdbNca3rQcDkrq6mh1febls0R+EPygVVfWdwx88eIRcqh3w3eGwxusbJtmiwV1JPbBqJJz4AbJk5GDkHXV1KzUdsUZ+GgVV/Vdwx88eIRcqg/DdsQC1ytZSv6BtRPtggVKLt2KQ/DQKqvqnhj548U59lNJdpGxxlsFxqJvjtBA3WYtsUp9xAqp+qeFuBCfKnSXw2HyWcQuNQy22nBAo8NObNQKqfqHYfKmyXeBsVR1JSFxippBJGDtgq+GxAfdTSqj6h4XZFOkUT7yN8djScZAEg8FrqiqxE/VdkUDfZfKL2CY9E4bEPNQKm554X80pz1Tv+M3x2JGCRpY7IqpidTyFjlrqk0k+D3XYt/7JRV0EowdbxwWs09KfUxMzcpK7XwZgEx6jdc2CGGxFzUCpeeeF2RTnqCT4zPEf3s1dIyqZquz6D1Kpp5aZ2rIPQoOQcmuTXpr1FrPOq3NQw8WMc9mPJBSc47Ep1XEdSbJqvDuooY7MsTJW6jxcKo0EDjA63cfVP0ZVR/ZfwxQppx9h3FR0VS/Jh/OCg0U7OU7lFEyIWYNpmSCebuOxpJhjqHj8704rR0/H07XdIwPiP8AJqvYbOnackNnHRgf9IrRNeKWTUfzXeR6/VA3xHz2BBSOwtszRNmYY35FVVM+mkMb/AP6OCg0rJSjUf7zfMeCg0jTz812PUcFe/wAt0rG5lcdrZKMoG2Kc7WN9qtomVbNV2YyPUqikkpn6kg/astVNc9nNJCFTOMnneV7ZUD7zvXt1T/IV7dU/yFe31P8AIV7fU/yFe3VPbKFbUds70KqY5vO9Nle7Mk/lRlRFRlOdf5EsTJW6rxcKfQoOMJ/B9VJo6ojzbuxRjc3MWWqtVaqsrKysgmqME5KGCQ/ao6cjnIADL5lkWNOYXEx9kbh6LiI+yNw9FxEXZG4ei4iLsjcPRcRF2RuHouIi7I3D0XEx9kbh6IMaMgrf+D//xAA+EQABAwEDBwkGBQMFAAAAAAABAAIDBAURMRIgIUFRcbEGEBM0YYGRwdEiJDAyQlIUM6Hh8CNAgkNQU2Jy/9oACAEDAQE/AP7++5GVgxK6ePaunj2rp2bV0rVltKDgea4rJOxZDtiuu+G94ZinzPdhoRaXYoRIRIQoQpsKbAmwoQpsKEKEK6AHEJ9Cx2GhTUr4dJ0j4DjdgujJ0ldEhEujCDWoZAQcwISRoTxBCoi7UKqHt8EKuDt8EKyn2/om1dOfqTCx4vYb1kIsB0FVtF0f9RmHDOAvNyES6JOIGgfFDi03hUtpOacmbSNuv9025wDm4FFgIuKrab8PJcMDhmwM+pAKofk+yPi0dnSVQysG7fRSWGbvYfp7QpYnROLHi4hWTVFr+hdgcN/78UWq04OkgLhi3T65sLLmBBqldlPJ+B0b/tPgfREEY5kUQjYGNwCyVb0QBY/XpCa4tIcMQonCRgeNYvTow4Fp1pzS1xadWY1twuThc0nOpqSWqddGO/UqexIWaZfaP6KOnjjFzGgINTomv0OAKqLFp5dLRkns9FWWbNSaXC9u0eezmsy0o54xHIbnj9VJIyJuU8gBWpXCrl9j5Rh681lnLpGH+YlFqrW5NQ8dp526SEGqZt0Tj2HNs6znVbr3aGjH0H80KKFsTQxguAQanFrBe43BfjaYG7pG+IUb2SC9hB3FXIsDhcQrWsnoL5oR7OsbP24bs2xdNIN54ohWoLqt+/yHPHpeN6a1VLboHnszKWndUytibrUEDIWCNg0BAK0bbEZMVNpO3V3bd+ClmkmOVI4k9vMx7mHKYbj2Kgt57CGVOkbdY37eKY5r2hzTeCnNDgQReFalD+DnLR8p0j07sywuqd58kQrX64/u4Dni/MbvHFNaqxvu792ZyepvZdOdegeaDVb1eYWCnjOl2O79+Gdyfryx/wCFkOg4dh2d/FXK3qUTUpeMW6fX+dmZyf6p3nyRCtnrj+7gOeD81u8cQmtVc33aTdmWVH0dJGOy/wAdPNaMxnqpH9t3cNA4ZzHmNwe3EaVE8SsbINYB8QpYhIwsOsEeKIuNx5+T3VO8+SIVtddf3cBzwfmt3jiE1qrx7rJuzKHq0f8A5HBBSC55B2nic+zgRSRX/aOCuU35jrtp4nn5PdT7z5c1t9df3cBz0/5rN44hNCtAe6ybsyx5RJRsOzR4c1rU5gq3t1HSO/8AhzoIXTytibi43JkYY0MbgNHgqiQQxOkOoE/pmcnep/5HyRCtvrr+7gOen/NZvHEIBWiPdJNxzOTlVkudTu16R5+vNbNnGsiDmfO3DtGz0RBBuObydssx+9zDSflHZt79XZv5uUtWIqcQDF/AY+QzOTvU/wDI+SKtvrr+7gOeDRK3eOIQVeL6WTccyGV0LxIzEKirGVcQkZ3jYUCrRsaKsOWz2X7dR3+qqLJq4D7TLxtGn+eCMbwbrj4H0UFm1U5uZGe/QPE3KzeTzICJKk5TtmoevBAqWZkDDLIbgFaNc6unMzsNQ2D+Y9uZydHuQ3nyRVtddk7uA52G5wPaOasF9PIOw8M2hrpKKTLZhrG391SVsVWzLjPdrCBV6vQKBU9RHTsMkpuAVrWu+vdkt0MGA29p9NW/N5Pi6hbvPFFWub62Tf5DMjdlNDtoCkGWws2g8FhmxSvhdlxm4ql5ROb7M7b+0eiitmkk+u7foQrqY6ekb4hSWtRx4yDu08FU8pWAXU7bztPoqqsmq3Zczr+A3DOsaPo6GMHZf4klFWg/LqpHf9jxu8syzZulpWHYLvBXq0IehqHN1Yjv/sIIXTyNiZiTco2CNoY3AC7wU8gijdIdQJ8E4lxJOvMsSouLoTr0jzRcrUpfxDMtnzD9R/YcnbLLPe5hp+kefp4orlHViKnEIxfwGPkM2KR0Tw9uIUFS2dge1Fyq6Jkxym6CpKWWP5h8Sns+pqD/AE2E9uA8TcrO5OshIkqTlHZq79vDfzTSshYZHm4BWhWurZzKcNXYM6mqXU7r24awo6hkzb2lFyLk7JOIRjjP0jwXQxH6QhTw/aEKeH7QhTQfYE2lg+wJtHTn6Am0VN/xjwTKSmH+mPAKKKJnytA7h6IFXqaeOBhklNwCta1317shmhg1be0+Q1b/AIDHuYb2m5Mrzg8IVMbsCg8HArKWUg5ByDk1ya5NcmOQla3STcn2pSQj25B3aeF6qeUzALqdt52nR+mKqq2erdlTOv4DcPi3lZTtqy3bSst20rpH7T4rpH/cfErpX/cfErpZPuPifVF7jiT4/wCxf//Z;" vertex="1" parent="1">
          <mxGeometry x="744.0000000000001" y="680" width="50" height="50" as="geometry" />
        </mxCell>
        <mxCell id="x93Fjln73QGW43nD9XBb-1" value="Computador" style="text;html=1;strokeColor=none;fillColor=none;align=center;verticalAlign=middle;whiteSpace=wrap;rounded=0;fontSize=18;fontStyle=1" vertex="1" parent="1">
          <mxGeometry x="213.5" y="585" width="171" height="30" as="geometry" />
        </mxCell>
        <mxCell id="x93Fjln73QGW43nD9XBb-2" value="Celular" style="text;html=1;strokeColor=none;fillColor=none;align=center;verticalAlign=middle;whiteSpace=wrap;rounded=0;fontSize=18;fontStyle=1" vertex="1" parent="1">
          <mxGeometry x="684" y="760" width="60" height="30" as="geometry" />
        </mxCell>
      </root>
    </mxGraphModel>
  </diagram>
</mxfile>
